<svg version="1.1" xmlns="http://www.w3.org/2000/svg" viewBox="0 0 625.7558921164359 786.7628431390128" width="625.7558921164359" height="786.7628431390128">
  <!-- svg-source:excalidraw -->
  
  <defs>
    <style class="style-fonts">
      @font-face {
        font-family: "Virgil";
        src: url("https://excalidraw.com/Virgil.woff2");
      }
      @font-face {
        font-family: "Cascadia";
        src: url("https://excalidraw.com/Cascadia.woff2");
      }
    </style>
  </defs>
  <rect x="0" y="0" width="625.7558921164359" height="786.7628431390128" fill="#ffffff"></rect><g stroke-linecap="round" transform="translate(30.785894874592714 133.73810696675883) rotate(0 268.5360463645694 31.041781506363066)"><path d="M15.52 0 M15.52 0 C153.03 0.17, 291.45 0.29, 521.55 0 M15.52 0 C211 -2.08, 407.09 -1.41, 521.55 0 M521.55 0 C530.36 -1.51, 536.64 4.48, 537.07 15.52 M521.55 0 C530.95 -1.83, 537.44 7.2, 537.07 15.52 M537.07 15.52 C535.79 23.66, 538.25 32.3, 537.07 46.56 M537.07 15.52 C537.72 28.18, 537.69 39.3, 537.07 46.56 M537.07 46.56 C538.4 55.39, 532.87 60.43, 521.55 62.08 M537.07 46.56 C535.31 57.51, 530.38 61.19, 521.55 62.08 M521.55 62.08 C331.53 61.95, 140.65 62.77, 15.52 62.08 M521.55 62.08 C376.96 63.35, 232.66 63.5, 15.52 62.08 M15.52 62.08 C5.01 63.27, 0.25 56.03, 0 46.56 M15.52 62.08 C5.42 61, -1.29 54.66, 0 46.56 M0 46.56 C2.08 34.17, 0.85 21.52, 0 15.52 M0 46.56 C-0.95 39.98, -0.44 32.93, 0 15.52 M0 15.52 C0.54 5.69, 5.16 -1.16, 15.52 0 M0 15.52 C2.14 6.01, 2.9 -1.6, 15.52 0" stroke="#000000" stroke-width="1" fill="none"></path></g><g stroke-linecap="round"><g transform="translate(506.7598779721593 32.58887879548428) rotate(0 -26.22196379739796 49.1997239477991)"><path d="M1.16 -0.23 C-7.56 16.14, -43.64 81.9, -52.88 98.58 M0.31 -1.39 C-8.48 15.09, -44.9 83.25, -53.6 99.79" stroke="#000000" stroke-width="1" fill="none"></path></g><g transform="translate(506.7598779721593 32.58887879548428) rotate(0 -26.22196379739796 49.1997239477991)"><path d="M-49.83 70.78 C-51.42 75.96, -50.34 85.19, -55.16 100.18 M-49.19 70.07 C-51.18 79.13, -51.37 85.31, -54.3 99.79" stroke="#000000" stroke-width="1" fill="none"></path></g><g transform="translate(506.7598779721593 32.58887879548428) rotate(0 -26.22196379739796 49.1997239477991)"><path d="M-31.7 80.4 C-37.88 83.34, -41.37 90.15, -55.16 100.18 M-31.07 79.7 C-37.99 86.17, -43.13 89.73, -54.3 99.79" stroke="#000000" stroke-width="1" fill="none"></path></g></g><mask></mask><g transform="translate(519.5707719271666 10) rotate(0 46.3542022705077 17.5)"><text x="0" y="0" font-family="Virgil, Segoe UI Emoji" font-size="28px" fill="#000000" text-anchor="start" style="white-space: pre;" direction="ltr" dominant-baseline="text-before-edge">Header</text></g><g stroke-linecap="round" transform="translate(23.887721206511287 427.40321455076474) rotate(0 268.53604636456953 77.99884561454866)"><path d="M32 0 M32 0 C137.74 0.83, 242.51 0.16, 505.07 0 M32 0 C138.63 -0.73, 245.24 -0.65, 505.07 0 M505.07 0 C528.28 -0.23, 537.59 10.67, 537.07 32 M505.07 0 C527.01 -0.39, 538.01 9.82, 537.07 32 M537.07 32 C538.35 53.68, 537.22 73.73, 537.07 124 M537.07 32 C536.93 52.77, 536.26 72.68, 537.07 124 M537.07 124 C537.66 145.9, 526.97 154.97, 505.07 156 M537.07 124 C539.1 145.01, 527.8 154.4, 505.07 156 M505.07 156 C320.58 157.25, 135.52 157.13, 32 156 M505.07 156 C357.9 154.32, 209.66 154.26, 32 156 M32 156 C9.2 155, -0.01 143.56, 0 124 M32 156 C9.27 154.75, 0.78 143.66, 0 124 M0 124 C-0.57 100.95, -0.52 78.46, 0 32 M0 124 C0.57 90.78, -0.06 57.12, 0 32 M0 32 C0.16 10.83, 12.06 0.88, 32 0 M0 32 C-1.63 9.67, 9.24 -1.65, 32 0" stroke="#000000" stroke-width="1" fill="none"></path></g><g stroke-linecap="round"><g transform="translate(546.1780132183344 705.3010680363009) rotate(0 -18.386901740077178 -36.67814367746888)"><path d="M0.41 -0.27 C-5.52 -12.6, -30.05 -60.9, -36.32 -73.08 M-0.84 -1.46 C-6.84 -13.7, -31.54 -59.95, -37.18 -71.78" stroke="#000000" stroke-width="1" fill="none"></path></g><g transform="translate(546.1780132183344 705.3010680363009) rotate(0 -18.386901740077178 -36.67814367746888)"><path d="M-15.71 -51.02 C-21.36 -57.29, -27.06 -60.49, -37.71 -71.31 M-15 -52.13 C-22.43 -58.37, -31.38 -65.18, -36.87 -71.46" stroke="#000000" stroke-width="1" fill="none"></path></g><g transform="translate(546.1780132183344 705.3010680363009) rotate(0 -18.386901740077178 -36.67814367746888)"><path d="M-34 -41.71 C-35.37 -50.26, -36.73 -55.66, -37.71 -71.31 M-33.29 -42.82 C-34.15 -52.27, -36.59 -62.4, -36.87 -71.46" stroke="#000000" stroke-width="1" fill="none"></path></g></g><mask></mask><g transform="translate(525.4834922140924 741.7628431390128) rotate(0 45.13619995117176 17.5)"><text x="0" y="0" font-family="Virgil, Segoe UI Emoji" font-size="28px" fill="#000000" text-anchor="start" style="white-space: pre;" direction="ltr" dominant-baseline="text-before-edge">Footer</text></g><g transform="translate(394.3994628537689 445.99734199095866) rotate(0 63.040138244628906 10)"><text x="0" y="0" font-family="Virgil, Segoe UI Emoji" font-size="16px" fill="#862e9c" text-anchor="start" style="white-space: pre;" direction="ltr" dominant-baseline="text-before-edge">About this page</text></g><g transform="translate(413.85986267078306 483.08616767803215) rotate(0 39.48533630371094 33.99006332028478)"><text x="0" y="0" font-family="Virgil, Segoe UI Emoji" font-size="13.596025328113914px" fill="#000000" text-anchor="start" style="white-space: pre;" direction="ltr" dominant-baseline="text-before-edge">source code</text><text x="0" y="16.99503166014239" font-family="Virgil, Segoe UI Emoji" font-size="13.596025328113914px" fill="#000000" text-anchor="start" style="white-space: pre;" direction="ltr" dominant-baseline="text-before-edge">impressum</text><text x="0" y="33.99006332028478" font-family="Virgil, Segoe UI Emoji" font-size="13.596025328113914px" fill="#000000" text-anchor="start" style="white-space: pre;" direction="ltr" dominant-baseline="text-before-edge">privacy</text><text x="0" y="50.98509498042718" font-family="Virgil, Segoe UI Emoji" font-size="13.596025328113914px" fill="#000000" text-anchor="start" style="white-space: pre;" direction="ltr" dominant-baseline="text-before-edge">status</text></g><g transform="translate(211.40012077287793 448.15341072718763) rotate(0 76.58415985107422 10)"><text x="0" y="0" font-family="Virgil, Segoe UI Emoji" font-size="16px" fill="#862e9c" text-anchor="start" style="white-space: pre;" direction="ltr" dominant-baseline="text-before-edge">Me on the Internet</text></g><g transform="translate(248.962225021098 487.5936201878185) rotate(0 30.635719299316406 32.71486831451805)"><text x="0" y="0" font-family="Virgil, Segoe UI Emoji" font-size="13.08594732580722px" fill="#000000" text-anchor="start" style="white-space: pre;" direction="ltr" dominant-baseline="text-before-edge">Github</text><text x="0" y="16.357434157259025" font-family="Virgil, Segoe UI Emoji" font-size="13.08594732580722px" fill="#000000" text-anchor="start" style="white-space: pre;" direction="ltr" dominant-baseline="text-before-edge">Mastodon</text><text x="0" y="32.71486831451805" font-family="Virgil, Segoe UI Emoji" font-size="13.08594732580722px" fill="#000000" text-anchor="start" style="white-space: pre;" direction="ltr" dominant-baseline="text-before-edge">Mail</text><text x="0" y="49.07230247177708" font-family="Virgil, Segoe UI Emoji" font-size="13.08594732580722px" fill="#000000" text-anchor="start" style="white-space: pre;" direction="ltr" dominant-baseline="text-before-edge">Matrix</text></g><g transform="translate(96.50261458861928 448.29517887420695) rotate(0 23.35205078125 10)"><text x="0" y="0" font-family="Virgil, Segoe UI Emoji" font-size="16px" fill="#862e9c" text-anchor="start" style="white-space: pre;" direction="ltr" dominant-baseline="text-before-edge">Pages</text></g><g transform="translate(97.37653004251388 495.07020341889574) rotate(0 25.025161743164062 24.53615123588854)"><text x="0" y="0" font-family="Virgil, Segoe UI Emoji" font-size="13.08594732580722px" fill="#000000" text-anchor="start" style="white-space: pre;" direction="ltr" dominant-baseline="text-before-edge">/blog</text><text x="0" y="16.357434157259025" font-family="Virgil, Segoe UI Emoji" font-size="13.08594732580722px" fill="#000000" text-anchor="start" style="white-space: pre;" direction="ltr" dominant-baseline="text-before-edge">/science</text><text x="0" y="32.71486831451805" font-family="Virgil, Segoe UI Emoji" font-size="13.08594732580722px" fill="#000000" text-anchor="start" style="white-space: pre;" direction="ltr" dominant-baseline="text-before-edge">/docs</text></g><g stroke-linecap="round" transform="translate(41.95328501588642 147.17070676901005) rotate(0 33 18)"><path d="M9 0 M9 0 C24.92 1.76, 42.83 -1.45, 57 0 M9 0 C20.63 -0.14, 31.71 -0.86, 57 0 M57 0 C63.02 1.09, 67.26 3.38, 66 9 M57 0 C64.67 -1.81, 67.66 4.53, 66 9 M66 9 C66.11 11.58, 67.12 16.77, 66 27 M66 9 C66.09 12.28, 66.54 18.17, 66 27 M66 27 C67.1 31.3, 61.14 35.63, 57 36 M66 27 C66.01 32.45, 61.74 36.69, 57 36 M57 36 C41.08 36.81, 21.55 37.44, 9 36 M57 36 C37.4 35.83, 19.17 35.2, 9 36 M9 36 C4.64 37.58, 0.86 34.6, 0 27 M9 36 C4.15 34.92, -0.59 30.92, 0 27 M0 27 C-1.4 23.3, -1.24 18.61, 0 9 M0 27 C-0.28 21.18, 0.58 16.1, 0 9 M0 9 C0.02 2.28, 3.45 1.06, 9 0 M0 9 C-0.7 2.95, 2.38 0.97, 9 0" stroke="#000000" stroke-width="1" fill="none"></path></g><g transform="translate(48.56923655397236 155.17070676901005) rotate(0 26.384048461914062 10)"><text x="26.384048461914062" y="0" font-family="Virgil, Segoe UI Emoji" font-size="16px" fill="#000000" text-anchor="middle" style="white-space: pre;" direction="ltr" dominant-baseline="text-before-edge">&lt;Logo&gt;</text></g><g transform="translate(124.62547042690585 152.9291516748745) rotate(0 18.60803985595703 10)"><text x="0" y="0" font-family="Virgil, Segoe UI Emoji" font-size="16px" fill="#000000" text-anchor="start" style="white-space: pre;" direction="ltr" dominant-baseline="text-before-edge">/blog</text></g><g transform="translate(181.13606410314446 153.50140380162787) rotate(0 30.616058349609375 10)"><text x="0" y="0" font-family="Virgil, Segoe UI Emoji" font-size="16px" fill="#000000" text-anchor="start" style="white-space: pre;" direction="ltr" dominant-baseline="text-before-edge">/science</text></g><g transform="translate(255.37536559090177 154.05783812408862) rotate(0 21.344039916992188 10)"><text x="0" y="0" font-family="Virgil, Segoe UI Emoji" font-size="16px" fill="#000000" text-anchor="start" style="white-space: pre;" direction="ltr" dominant-baseline="text-before-edge">/docs</text></g><g transform="translate(489.0899516386703 156.82419193209932) rotate(0 22.58405303955078 10)"><text x="0" y="0" font-family="Virgil, Segoe UI Emoji" font-size="16px" fill="#000000" text-anchor="start" style="white-space: pre;" direction="ltr" dominant-baseline="text-before-edge">Niklas</text></g><g stroke-linecap="round" transform="translate(10 113.97874910262482) rotate(0 285.7290245835741 241.7707131091781)"><path d="M32 0 M32 0 C203.66 0.09, 375.57 0.24, 539.46 0 M32 0 C174.85 1.31, 318.33 1.04, 539.46 0 M539.46 0 C561.85 1.42, 573.08 8.69, 571.46 32 M539.46 0 C560.72 -0.2, 570.67 8.65, 571.46 32 M571.46 32 C569.24 163.47, 570.19 293.84, 571.46 451.54 M571.46 32 C570.28 135.04, 569.34 238.74, 571.46 451.54 M571.46 451.54 C572.15 472.49, 560.01 483.74, 539.46 483.54 M571.46 451.54 C570.93 473.04, 558.6 485.13, 539.46 483.54 M539.46 483.54 C395.25 484.97, 249.8 485.39, 32 483.54 M539.46 483.54 C345.57 481.78, 151.96 481.47, 32 483.54 M32 483.54 C12.02 483.91, -0.61 472.53, 0 451.54 M32 483.54 C12.08 483.22, 1.72 473.97, 0 451.54 M0 451.54 C1.43 315.75, 1.5 182.64, 0 32 M0 451.54 C1.73 365.45, 1.95 280.26, 0 32 M0 32 C-0.49 8.91, 11.35 1.3, 32 0 M0 32 C-0.81 9.66, 9.84 0.54, 32 0" stroke="#000000" stroke-width="1" fill="none"></path></g></svg>