<svg version="1.1" xmlns="http://www.w3.org/2000/svg" viewBox="0 0 1097.8947300193458 716.6537170617448" width="1097.8947300193458" height="716.6537170617448">
  <!-- svg-source:excalidraw -->
  
  <defs>
    <style class="style-fonts">
      @font-face {
        font-family: "Virgil";
        src: url("https://excalidraw.com/Virgil.woff2");
      }
      @font-face {
        font-family: "Cascadia";
        src: url("https://excalidraw.com/Cascadia.woff2");
      }
    </style>
  </defs>
  <rect x="0" y="0" width="1097.8947300193458" height="716.6537170617448" fill="#ffffff"></rect><g transform="translate(432.6210082384255 66.92301336022496) rotate(0 18 22.5)"><text x="0" y="0" font-family="Virgil, Segoe UI Emoji" font-size="36px" fill="#000000" text-anchor="start" style="white-space: pre;" direction="ltr" dominant-baseline="text-before-edge">/ </text></g><g transform="translate(393.1954532136583 10) rotate(0 80.8740234375 22.5)"><text x="0" y="0" font-family="Virgil, Segoe UI Emoji" font-size="36px" fill="#000000" text-anchor="start" style="white-space: pre;" direction="ltr" dominant-baseline="text-before-edge">Homepage</text></g><g transform="translate(193.54658829569644 332.78749506799386) rotate(0 48.024009704589844 22.5)"><text x="0" y="0" font-family="Virgil, Segoe UI Emoji" font-size="36px" fill="#000000" text-anchor="start" style="white-space: pre;" direction="ltr" dominant-baseline="text-before-edge">/docs</text></g><g transform="translate(433.7177918398297 266.5916139496266) rotate(0 41.868011474609375 22.5)"><text x="0" y="0" font-family="Virgil, Segoe UI Emoji" font-size="36px" fill="#000000" text-anchor="start" style="white-space: pre;" direction="ltr" dominant-baseline="text-before-edge">/blog</text></g><g transform="translate(582.3787377772378 163.14575367193652) rotate(0 68.88601684570312 22.5)"><text x="0" y="0" font-family="Virgil, Segoe UI Emoji" font-size="36px" fill="#000000" text-anchor="start" style="white-space: pre;" direction="ltr" dominant-baseline="text-before-edge">/science</text></g><g stroke-linecap="round"><g transform="translate(516.0333063280073 85.16877833420631) rotate(0 134.01682855140052 1.2331847167211833)"><path d="M-1.08 -0.81 C43.88 -0.4, 224.02 2.59, 269.11 3.28 M0.55 1.37 C45.44 1.39, 223.6 1.66, 268.36 1.68" stroke="#000000" stroke-width="1" fill="none"></path></g><g transform="translate(516.0333063280073 85.16877833420631) rotate(0 134.01682855140052 1.2331847167211833)"><path d="M238.81 12.54 C248.7 10.89, 255.69 6.22, 269.85 2.6 M239.2 12.23 C245.7 9.46, 251.98 7.99, 268.9 1.66" stroke="#000000" stroke-width="1" fill="none"></path></g><g transform="translate(516.0333063280073 85.16877833420631) rotate(0 134.01682855140052 1.2331847167211833)"><path d="M238.83 -7.98 C248.85 -4.58, 255.85 -4.19, 269.85 2.6 M239.22 -8.29 C245.6 -6.55, 251.87 -3.51, 268.9 1.66" stroke="#000000" stroke-width="1" fill="none"></path></g></g><mask></mask><g transform="translate(803.5550693748146 53.299136438318044) rotate(0 142.16983032226562 25)"><text x="0" y="0" font-family="Virgil, Segoe UI Emoji" font-size="20px" fill="#000000" text-anchor="start" style="white-space: pre;" direction="ltr" dominant-baseline="text-before-edge">General Information can</text><text x="0" y="25" font-family="Virgil, Segoe UI Emoji" font-size="20px" fill="#000000" text-anchor="start" style="white-space: pre;" direction="ltr" dominant-baseline="text-before-edge"> be found in the root folder.</text></g><g transform="translate(871.0091517067885 106.23778333176534) rotate(0 53.639930725097656 37.5)"><text x="0" y="0" font-family="Virgil, Segoe UI Emoji" font-size="20px" fill="#862e9c" text-anchor="start" style="white-space: pre;" direction="ltr" dominant-baseline="text-before-edge">- Impress</text><text x="0" y="25" font-family="Virgil, Segoe UI Emoji" font-size="20px" fill="#862e9c" text-anchor="start" style="white-space: pre;" direction="ltr" dominant-baseline="text-before-edge">- about-me</text><text x="0" y="50" font-family="Virgil, Segoe UI Emoji" font-size="20px" fill="#862e9c" text-anchor="start" style="white-space: pre;" direction="ltr" dominant-baseline="text-before-edge">- privacy</text></g><g stroke-linecap="round"><g transform="translate(443.2307308419945 115.63012390963519) rotate(0 -78.66876588887885 101.73745049454193)"><path d="M-1.06 -0.97 C-27.21 33.02, -130.98 170.49, -156.89 204.45 M0.58 1.13 C-25.74 34.75, -131.63 169.02, -157.92 202.77" stroke="#343a40" stroke-width="1" fill="none"></path></g></g><mask></mask><g stroke-linecap="round"><g transform="translate(440.6691834116664 116.48397305307788) rotate(0 15.074933747000614 66.26524791149996)"><path d="M-0.96 -0.67 C4.38 21.52, 25.87 109.77, 31.11 132.14 M0.74 1.59 C5.96 24, 24.56 111.56, 29.91 133.2" stroke="#343a40" stroke-width="1" fill="none"></path></g></g><mask></mask><g stroke-linecap="round"><g transform="translate(439.8153342682235 119.89936962684868) rotate(0 65.35385964201419 29.307217955322983)"><path d="M-0.38 0.54 C21.21 10.06, 107.08 47.84, 128.86 57.56 M1.61 -0.22 C23.64 9.42, 109.72 49.31, 131.09 58.83" stroke="#343a40" stroke-width="1" fill="none"></path></g></g><mask></mask><g transform="translate(146.7660762735204 401.88681411036026) rotate(0 129.86984252929688 25)"><text x="0" y="0" font-family="Virgil, Segoe UI Emoji" font-size="20px" fill="#000000" text-anchor="start" style="white-space: pre;" direction="ltr" dominant-baseline="text-before-edge">This subfolder is used for</text><text x="0" y="25" font-family="Virgil, Segoe UI Emoji" font-size="20px" fill="#000000" text-anchor="start" style="white-space: pre;" direction="ltr" dominant-baseline="text-before-edge">my IT-docs.</text></g><g transform="translate(355.39229431786634 327.7086032501484) rotate(0 134.86984252929688 25)"><text x="0" y="0" font-family="Virgil, Segoe UI Emoji" font-size="20px" fill="#000000" text-anchor="start" style="white-space: pre;" direction="ltr" dominant-baseline="text-before-edge">This subfolder is used for </text><text x="0" y="25" font-family="Virgil, Segoe UI Emoji" font-size="20px" fill="#000000" text-anchor="start" style="white-space: pre;" direction="ltr" dominant-baseline="text-before-edge">my Blog</text></g><g transform="translate(543.9285802542345 211.80514878106658) rotate(0 129.86984252929688 25)"><text x="0" y="0" font-family="Virgil, Segoe UI Emoji" font-size="20px" fill="#000000" text-anchor="start" style="white-space: pre;" direction="ltr" dominant-baseline="text-before-edge">This subfolder is used for</text><text x="0" y="25" font-family="Virgil, Segoe UI Emoji" font-size="20px" fill="#000000" text-anchor="start" style="white-space: pre;" direction="ltr" dominant-baseline="text-before-edge">my science projects/notes</text></g><g stroke-linecap="round"><g transform="translate(438.0700918391408 122.17314399164405) rotate(0 -93.92660084820932 42.430573617226315)"><path d="M-0.38 -1.16 C-31.78 13.37, -157.42 71.66, -189.07 86.03 M1.63 0.84 C-29.79 15.09, -157.36 69.85, -189.48 84.04" stroke="#000000" stroke-width="1" fill="none"></path></g></g><mask></mask><g transform="translate(79.54207268145001 201.03245908460616) rotate(0 80.3160171508789 22.5)"><text x="0" y="0" font-family="Virgil, Segoe UI Emoji" font-size="36px" fill="#000000" text-anchor="start" style="white-space: pre;" direction="ltr" dominant-baseline="text-before-edge">/projects</text></g><g transform="translate(26.941199798207435 254.80184206959427) rotate(0 129.86984252929688 25)"><text x="0" y="0" font-family="Virgil, Segoe UI Emoji" font-size="20px" fill="#000000" text-anchor="start" style="white-space: pre;" direction="ltr" dominant-baseline="text-before-edge">This subfolder is used for</text><text x="0" y="25" font-family="Virgil, Segoe UI Emoji" font-size="20px" fill="#000000" text-anchor="start" style="white-space: pre;" direction="ltr" dominant-baseline="text-before-edge">my Porjects.</text></g><g transform="translate(10 531.6537170617448) rotate(0 298.8796691894531 87.5)"><text x="0" y="0" font-family="Virgil, Segoe UI Emoji" font-size="20px" fill="#000000" text-anchor="start" style="white-space: pre;" direction="ltr" dominant-baseline="text-before-edge">[I] The content in the subfolders may matches sometimes. </text><text x="0" y="25" font-family="Virgil, Segoe UI Emoji" font-size="20px" fill="#000000" text-anchor="start" style="white-space: pre;" direction="ltr" dominant-baseline="text-before-edge">[II] To clarify the difference between projects and docs:</text><text x="0" y="50" font-family="Virgil, Segoe UI Emoji" font-size="20px" fill="#000000" text-anchor="start" style="white-space: pre;" direction="ltr" dominant-baseline="text-before-edge">- Documentation is to document the Software/Project, so</text><text x="0" y="75" font-family="Virgil, Segoe UI Emoji" font-size="20px" fill="#000000" text-anchor="start" style="white-space: pre;" direction="ltr" dominant-baseline="text-before-edge">that others can build it to.</text><text x="0" y="100" font-family="Virgil, Segoe UI Emoji" font-size="20px" fill="#000000" text-anchor="start" style="white-space: pre;" direction="ltr" dominant-baseline="text-before-edge">- Project is an Roadmap of the Project, which will show</text><text x="0" y="125" font-family="Virgil, Segoe UI Emoji" font-size="20px" fill="#000000" text-anchor="start" style="white-space: pre;" direction="ltr" dominant-baseline="text-before-edge">the building process of the blog. This is only used for larger</text><text x="0" y="150" font-family="Virgil, Segoe UI Emoji" font-size="20px" fill="#000000" text-anchor="start" style="white-space: pre;" direction="ltr" dominant-baseline="text-before-edge">projects, as they would be to big for blog posts.</text></g></svg>